<svg fill="none" height="122" viewBox="0 0 122 122" width="122" xmlns="http://www.w3.org/2000/svg"><rect fill="#3e3e3e" height="100%" width="100%"/><g fill="#fff" transform="translate(6 8)"><path d="m81.6744 103.11c16.8938-9.3866 28.3256-27.4133 28.3256-48.11 0-30.3757-24.6243-55-55-55s-55 24.6243-55 55c0 20.6967 11.4318 38.7234 28.3255 48.11-13.4386-8.7376-22.3255-23.886-22.3255-41.11 0-27.062 21.938-49 49-49s49 21.938 49 49c0 17.224-8.8869 32.3725-22.3256 41.11z"/><path d="m92.9546 80.0076c2.5939-5.4575 4.0454-11.563 4.0454-18.0076 0-23.196-18.804-42-42-42s-42 18.804-42 42c0 6.4446 1.4515 12.5501 4.0454 18.0076-.6836-2.8915-1.0454-5.9073-1.0454-9.0076 0-21.5391 17.4609-39 39-39s39 17.4609 39 39c0 3.1003-.3618 6.1161-1.0454 9.0076z"/><path d="m55 89c14.3594 0 26-11.6406 26-26 0-5.0703-1.4514-9.8017-3.9613-13.8013 5.5403 5.6002 8.9613 13.3013 8.9613 21.8013 0 17.1208-13.8792 31-31 31s-31-13.8792-31-31c0-8.5 3.421-16.2011 8.9613-21.8013-2.5099 3.9996-3.9613 8.731-3.9613 13.8013 0 14.3594 11.6406 26 26 26z"/><path d="m73 63c0 9.9411-8.0589 18-18 18s-18-8.0589-18-18 8.0589-18 18-18 18 8.0589 18 18z"/></g></svg>